<?xml version="1.0" encoding="UTF-8"?>
<svg id="Ebene_1" data-name="Ebene 1" xmlns="http://www.w3.org/2000/svg" width="66.294mm" height="10mm" viewBox="0 0 187.919 28.348">
  <g>
    <path d="M61.593,12.619v-5.526h3.276v.658h-2.511v1.737h2.365v.658h-2.365v2.472h-.765Z" style="fill: #000; stroke-width: 0px;"/>
    <path d="M67.793,10.246c0-.666-.039-1.056-.811-1.056-.368,0-.712.214-.72.612h-.765c.038-.841.697-1.14,1.454-1.14.789,0,1.569.238,1.569,1.309v1.836c0,.168.008.49.031.811h-.49c-.069,0-.199.039-.207-.053-.016-.177-.031-.345-.038-.52h-.015c-.238.482-.666.688-1.194.688-.665,0-1.339-.345-1.339-1.094,0-1.079.957-1.393,1.867-1.393h.659ZM67.065,10.751c-.444.023-1.033.184-1.033.742,0,.475.329.712.758.712.857,0,1.017-.742,1.003-1.454h-.727Z" style="fill: #000; stroke-width: 0px;"/>
    <path d="M72.01,10.009c-.039-.482-.268-.819-.788-.819-.697,0-.965.605-.965,1.507s.268,1.508.965,1.508c.481,0,.78-.313.818-.865h.727c-.061.865-.704,1.393-1.554,1.393-1.232,0-1.722-.872-1.722-2.005,0-1.124.566-2.066,1.783-2.066.811,0,1.424.513,1.461,1.347h-.727Z" style="fill: #000; stroke-width: 0px;"/>
    <path d="M73.786,12.619v-5.526h.726v2.196h.015c.276-.428.689-.627,1.248-.627,1.002,0,1.316.666,1.316,1.355v2.602h-.726v-2.273c0-.674-.176-1.11-.857-1.125-.291-.008-.734.214-.873.536-.168.398-.123.673-.123.888v1.975h-.726Z" style="fill: #000; stroke-width: 0px;"/>
    <path d="M78.423,12.619v-5.526h.727v2.196h.015c.275-.428.689-.627,1.248-.627,1.002,0,1.316.666,1.316,1.355v2.602h-.727v-2.273c0-.674-.177-1.11-.857-1.125-.29-.008-.734.214-.872.536-.169.398-.123.673-.123.888v1.975h-.727Z" style="fill: #000; stroke-width: 0px;"/>
    <path d="M86.436,10.697c0,1.194-.65,2.036-1.913,2.036s-1.914-.842-1.914-2.036.651-2.036,1.914-2.036,1.913.842,1.913,2.036ZM84.523,12.205c.865,0,1.148-.688,1.148-1.508s-.283-1.507-1.148-1.507-1.148.689-1.148,1.507.283,1.508,1.148,1.508Z" style="fill: #000; stroke-width: 0px;"/>
    <path d="M89.673,10.009c-.037-.482-.268-.819-.787-.819-.697,0-.965.605-.965,1.507s.268,1.508.965,1.508c.481,0,.78-.313.818-.865h.728c-.062.865-.704,1.393-1.554,1.393-1.232,0-1.723-.872-1.723-2.005,0-1.124.566-2.066,1.783-2.066.811,0,1.424.513,1.462,1.347h-.727Z" style="fill: #000; stroke-width: 0px;"/>
    <path d="M91.449,12.619v-5.526h.727v2.196h.016c.277-.428.689-.627,1.248-.627,1.004,0,1.316.666,1.316,1.355v2.602h-.727v-2.273c0-.674-.176-1.11-.857-1.125-.291-.008-.734.214-.873.536-.168.398-.123.673-.123.888v1.975h-.727Z" style="fill: #000; stroke-width: 0px;"/>
    <path d="M97.236,8.662c.726,0,1.545.306,1.492,1.179h-.766c.031-.49-.344-.65-.766-.65-.391,0-.705.184-.705.612s.66.459.936.544c.65.214,1.4.29,1.4,1.155,0,.942-.92,1.232-1.707,1.232-.805,0-1.476-.367-1.471-1.255h.766c.016.475.338.727.781.727.428,0,.865-.168.865-.666,0-.857-2.334-.214-2.334-1.714,0-.804.811-1.164,1.508-1.164Z" style="fill: #000; stroke-width: 0px;"/>
    <path d="M102.041,10.009c-.037-.482-.267-.819-.787-.819-.697,0-.965.605-.965,1.507s.268,1.508.965,1.508c.482,0,.781-.313.818-.865h.728c-.062.865-.705,1.393-1.555,1.393-1.232,0-1.723-.872-1.723-2.005,0-1.124.566-2.066,1.783-2.066.812,0,1.424.513,1.463,1.347h-.729Z" style="fill: #000; stroke-width: 0px;"/>
    <path d="M103.818,12.619v-5.526h.727v2.196h.016c.275-.428.687-.627,1.248-.627,1.002,0,1.316.666,1.316,1.355v2.602h-.728v-2.273c0-.674-.176-1.11-.855-1.125-.293-.008-.736.214-.873.536-.17.398-.123.673-.123.888v1.975h-.727Z" style="fill: #000; stroke-width: 0px;"/>
    <path d="M110.883,8.777h.727v3.842h-.713v-.566h-.014c-.291.482-.781.681-1.318.681-.803,0-1.262-.612-1.262-1.385v-2.571h.726v2.273c0,.665.154,1.155.85,1.155.299,0,.705-.153.857-.551.139-.359.146-.811.146-.903v-1.975Z" style="fill: #000; stroke-width: 0px;"/>
    <path d="M112.803,12.619v-5.526h.726v5.526h-.726Z" style="fill: #000; stroke-width: 0px;"/>
    <path d="M115.344,10.835c-.053.673.223,1.37.965,1.37.566,0,.85-.222.934-.78h.766c-.115.872-.789,1.309-1.707,1.309-1.232,0-1.723-.872-1.723-2.005,0-1.124.566-2.066,1.783-2.066,1.148.023,1.691.75,1.691,1.814v.36h-2.709ZM117.287,10.33c.016-.643-.275-1.14-.978-1.14-.605,0-.965.513-.965,1.14h1.943Z" style="fill: #000; stroke-width: 0px;"/>
    <path d="M125.385,7.093v5.526h-.949l-2.793-4.691h-.016v4.691h-.68v-5.526h1.047l2.695,4.569h.016v-4.569h.68Z" style="fill: #000; stroke-width: 0px;"/>
    <path d="M130.283,10.697c0,1.194-.65,2.036-1.912,2.036s-1.914-.842-1.914-2.036.65-2.036,1.914-2.036,1.912.842,1.912,2.036ZM128.371,12.205c.863,0,1.146-.688,1.146-1.508s-.283-1.507-1.146-1.507-1.148.689-1.148,1.507.283,1.508,1.148,1.508Z" style="fill: #000; stroke-width: 0px;"/>
    <path d="M131.951,12.619h-.727v-3.842h.727v.742h.016c.107-.527.598-.795,1.125-.795.092,0,.168.008.254.008v.688c-.1-.038-.215-.038-.314-.038-.918.031-1.08.52-1.08,1.332v1.906Z" style="fill: #000; stroke-width: 0px;"/>
    <path d="M136.566,7.093h.729v4.845c0,.229.021.459.037.681h-.742l-.023-.574v-.039h-.014c-.262.536-.766.727-1.324.727-1.141,0-1.592-1.049-1.592-2.036,0-1.04.527-2.036,1.721-2.036.49,0,.973.176,1.195.635h.014v-2.204ZM135.488,12.228c.881,0,1.086-.819,1.086-1.538,0-.697-.26-1.523-1.086-1.523-.873,0-1.088.804-1.088,1.523s.27,1.538,1.088,1.538Z" style="fill: #000; stroke-width: 0px;"/>
    <path d="M144.189,8.777l-1.353,3.842h-.828l-.894-3.161h-.016l-.994,3.161h-.85l-1.271-3.842h.789l.926,3.092h.016l.957-3.092h.941l.865,3.03h.014l.957-3.03h.742Z" style="fill: #000; stroke-width: 0px;"/>
    <path d="M145.391,10.835c-.053.673.223,1.37.965,1.37.566,0,.85-.222.934-.78h.766c-.115.872-.787,1.309-1.707,1.309-1.232,0-1.721-.872-1.721-2.005,0-1.124.564-2.066,1.783-2.066,1.147.023,1.691.75,1.691,1.814v.36h-2.711ZM147.336,10.33c.014-.643-.275-1.14-.98-1.14-.603,0-.965.513-.965,1.14h1.945Z" style="fill: #000; stroke-width: 0px;"/>
    <path d="M150.404,8.662c.727,0,1.547.306,1.492,1.179h-.766c.031-.49-.344-.65-.764-.65-.391,0-.705.184-.705.612s.658.459.934.544c.65.214,1.4.29,1.4,1.155,0,.942-.918,1.232-1.707,1.232-.803,0-1.477-.367-1.469-1.255h.766c.016.475.336.727.781.727.428,0,.863-.168.863-.666,0-.857-2.334-.214-2.334-1.714,0-.804.812-1.164,1.508-1.164Z" style="fill: #000; stroke-width: 0px;"/>
    <path d="M153.236,8.777v-.819l.726-.229v1.048l.889-.023v.544l-.889-.008v2.48c0,.275.215.405.475.405.115,0,.268-.016.383-.046v.559c-.168.008-.328.046-.498.046-.176,0-.312-.007-.488-.038-.115-.023-.307-.084-.43-.252-.129-.184-.168-.199-.168-.712v-2.442l-.658.008v-.544l.658.023Z" style="fill: #000; stroke-width: 0px;"/>
    <path d="M157.049,8.662c.726,0,1.545.306,1.492,1.179h-.766c.031-.49-.344-.65-.766-.65-.391,0-.705.184-.705.612s.66.459.936.544c.65.214,1.4.29,1.4,1.155,0,.942-.92,1.232-1.707,1.232-.805,0-1.476-.367-1.471-1.255h.766c.016.475.338.727.781.727.428,0,.865-.168.865-.666,0-.857-2.334-.214-2.334-1.714,0-.804.811-1.164,1.508-1.164Z" style="fill: #000; stroke-width: 0px;"/>
    <path d="M161.853,10.009c-.037-.482-.267-.819-.787-.819-.697,0-.965.605-.965,1.507s.268,1.508.965,1.508c.482,0,.779-.313.818-.865h.727c-.061.865-.703,1.393-1.553,1.393-1.232,0-1.723-.872-1.723-2.005,0-1.124.566-2.066,1.783-2.066.811,0,1.424.513,1.463,1.347h-.729Z" style="fill: #000; stroke-width: 0px;"/>
    <path d="M163.592,12.619v-5.526h.727v2.196h.016c.275-.428.687-.627,1.248-.627,1.002,0,1.316.666,1.316,1.355v2.602h-.728v-2.273c0-.674-.176-1.11-.855-1.125-.293-.008-.736.214-.873.536-.17.398-.123.673-.123.888v1.975h-.727Z" style="fill: #000; stroke-width: 0px;"/>
    <path d="M173.678,8.777l-1.354,3.842h-.826l-.896-3.161h-.016l-.994,3.161h-.85l-1.269-3.842h.787l.926,3.092h.016l.957-3.092h.941l.865,3.03h.014l.957-3.03h.742Z" style="fill: #000; stroke-width: 0px;"/>
    <path d="M174.881,10.835c-.055.673.221,1.37.963,1.37.566,0,.85-.222.935-.78h.764c-.113.872-.787,1.309-1.707,1.309-1.23,0-1.721-.872-1.721-2.005,0-1.124.566-2.066,1.783-2.066,1.148.023,1.691.75,1.691,1.814v.36h-2.709ZM176.824,10.33c.016-.643-.275-1.14-.98-1.14-.603,0-.963.513-.963,1.14h1.943Z" style="fill: #000; stroke-width: 0px;"/>
    <path d="M178.463,7.093h.863v.788h-.863v-.788ZM178.531,12.619v-3.842h.726v3.842h-.726Z" style="fill: #000; stroke-width: 0px;"/>
    <path d="M183.131,12.619h-2.793v-.505l1.936-2.832h-1.906v-.505h2.688v.505l-1.93,2.832h2.006v.505Z" style="fill: #000; stroke-width: 0px;"/>
  </g>
  <path d="M161.669,15.728v3.431c0,.592.13.837.245.998.346.461.883.545,1.267.545,1.497,0,1.497-1.174,1.497-1.573v-3.4h.744v3.416c0,.299-.008.921-.453,1.474-.545.683-1.389.768-1.788.768-.521,0-1.442-.146-1.957-.883-.169-.246-.322-.568-.322-1.397v-3.377h.768Z" style="fill: #000; stroke-width: 0px;"/>
  <path d="M166.54,17.931l-.016-.515h.729v.561c.368-.606.89-.66,1.22-.66.853,0,1.121.438,1.259.722.131-.215.445-.722,1.297-.722.553,0,1.413.23,1.413,1.366v2.587h-.729v-2.472c0-.338-.062-.483-.131-.583-.122-.177-.368-.338-.736-.338-.469,0-.722.269-.821.406-.169.238-.169.66-.169.829v2.157h-.729v-2.549c0-.476-.276-.844-.844-.844-.491,0-.76.307-.845.422-.161.223-.169.537-.169.783v2.188h-.729v-3.339Z" style="fill: #000; stroke-width: 0px;"/>
  <path d="M173.872,17.416l.929,3.07.975-3.07h.944l.875,3.04.967-3.04h.744l-1.358,3.854h-.829l-.905-3.17-1.006,3.17h-.852l-1.274-3.854h.791Z" style="fill: #000; stroke-width: 0px;"/>
  <path d="M180.469,19.474c-.016.798.314,1.389,1.104,1.389.469,0,.845-.245.906-.798h.722c-.023.191-.054.507-.33.806-.169.192-.553.515-1.328.515-1.213,0-1.788-.753-1.788-1.973,0-.76.153-1.39.76-1.812.368-.261.829-.284,1.051-.284,1.728,0,1.689,1.527,1.674,2.157h-2.771ZM182.503,18.967c.008-.368-.062-1.136-.951-1.136-.469,0-1.036.284-1.052,1.136h2.003Z" style="fill: #000; stroke-width: 0px;"/>
  <path d="M184.116,15.735h.722v5.534h-.722v-5.534Z" style="fill: #000; stroke-width: 0px;"/>
  <path d="M185.662,17.401h.684v-.807l.714-.229v1.036h.859v.529h-.859v2.311c0,.191,0,.514.514.514.146,0,.284-.022.346-.038v.561c-.131.022-.338.046-.599.046-.66,0-.975-.192-.975-.821v-2.571h-.684v-.529Z" style="fill: #000; stroke-width: 0px;"/>
  <path d="M148.071,17.431h.726v3.843h-.71v-.566h-.016c-.292.482-.782.681-1.317.681-.806,0-1.265-.613-1.265-1.386v-2.572h.73v2.273c0,.666.152,1.156.85,1.156.297,0,.704-.152.856-.551.138-.36.146-.811.146-.903v-1.975Z" style="fill: #000; stroke-width: 0px;"/>
  <path d="M150.814,17.997h.016c.245-.483.782-.683,1.164-.683.267,0,1.453.07,1.453,1.302v2.658h-.726v-2.419c0-.636-.268-.981-.88-.981,0,0-.397-.023-.704.284-.107.107-.306.276-.306,1.025v2.092h-.728v-3.843h.712v.566Z" style="fill: #000; stroke-width: 0px;"/>
  <path d="M156.21,20.883c.88,0,1.088-.819,1.088-1.539,0-.697-.263-1.524-1.088-1.524-.874,0-1.086.804-1.086,1.524s.268,1.539,1.086,1.539M157.29,15.747h.726v4.845c0,.23.024.46.039.683h-.744l-.021-.576v-.037h-.016c-.259.537-.765.728-1.325.728-1.14,0-1.592-1.049-1.592-2.036,0-1.043.529-2.037,1.724-2.037.488,0,.971.175,1.193.634h.016v-2.204Z" style="fill: #000; stroke-width: 0px;"/>
  <path d="M61.591,21.264v-5.527h.765v2.373h2.625v-2.373h.765v5.527h-.765v-2.496h-2.625v2.496h-.765Z" style="fill: #000; stroke-width: 0px;"/>
  <path d="M70.568,19.342c0,1.193-.651,2.035-1.914,2.035s-1.914-.842-1.914-2.035.65-2.036,1.914-2.036,1.914.842,1.914,2.036ZM68.655,20.85c.865,0,1.148-.689,1.148-1.508s-.283-1.508-1.148-1.508-1.148.688-1.148,1.508.283,1.508,1.148,1.508Z" style="fill: #000; stroke-width: 0px;"/>
  <path d="M73.844,18.652c-.038-.482-.268-.818-.788-.818-.697,0-.964.604-.964,1.508s.268,1.508.964,1.508c.482,0,.78-.314.819-.865h.727c-.061.865-.704,1.393-1.553,1.393-1.232,0-1.722-.871-1.722-2.004,0-1.126.566-2.067,1.784-2.067.811,0,1.423.513,1.461,1.347h-.727Z" style="fill: #000; stroke-width: 0px;"/>
  <path d="M75.543,21.264v-5.527h.727v2.197h.016c.276-.429.689-.628,1.248-.628,1.003,0,1.316.666,1.316,1.354v2.603h-.727v-2.273c0-.674-.176-1.11-.856-1.126-.291-.007-.735.214-.873.536-.168.397-.122.674-.122.889v1.975h-.727Z" style="fill: #000; stroke-width: 0px;"/>
  <path d="M81.329,17.306c.728,0,1.546.307,1.493,1.179h-.766c.03-.49-.345-.65-.766-.65-.391,0-.704.184-.704.611s.658.46.933.545c.651.215,1.4.291,1.4,1.154,0,.943-.918,1.232-1.706,1.232-.804,0-1.478-.367-1.47-1.254h.766c.015.475.337.727.78.727.429,0,.865-.168.865-.666,0-.857-2.334-.215-2.334-1.715,0-.803.811-1.163,1.507-1.163Z" style="fill: #000; stroke-width: 0px;"/>
  <path d="M86.135,18.652c-.038-.482-.268-.818-.788-.818-.697,0-.965.604-.965,1.508s.267,1.508.965,1.508c.481,0,.781-.314.818-.865h.727c-.061.865-.704,1.393-1.554,1.393-1.232,0-1.723-.871-1.723-2.004,0-1.126.566-2.067,1.783-2.067.812,0,1.424.513,1.463,1.347h-.727Z" style="fill: #000; stroke-width: 0px;"/>
  <path d="M87.912,21.264v-5.527h.727v2.197h.016c.275-.429.687-.628,1.247-.628,1.003,0,1.316.666,1.316,1.354v2.603h-.727v-2.273c0-.674-.176-1.11-.856-1.126-.292-.007-.735.214-.873.536-.168.397-.122.674-.122.889v1.975h-.727Z" style="fill: #000; stroke-width: 0px;"/>
  <path d="M94.975,17.421h.727v3.843h-.711v-.566h-.016c-.291.482-.779.68-1.316.68-.803,0-1.262-.611-1.262-1.385v-2.571h.727v2.272c0,.666.152,1.156.85,1.156.299,0,.703-.152.857-.551.137-.359.144-.81.144-.902v-1.976Z" style="fill: #000; stroke-width: 0px;"/>
  <path d="M96.896,21.264v-5.527h.727v5.527h-.727Z" style="fill: #000; stroke-width: 0px;"/>
  <path d="M99.361,19.48c-.055.672.221,1.369.963,1.369.567,0,.85-.223.934-.781h.766c-.113.873-.787,1.309-1.707,1.309-1.232,0-1.721-.871-1.721-2.004,0-1.126.566-2.067,1.783-2.067,1.148.022,1.691.75,1.691,1.813v.361h-2.709ZM101.305,18.975c.016-.644-.275-1.141-.981-1.141-.603,0-.963.513-.963,1.141h1.943Z" style="fill: #000; stroke-width: 0px;"/>
  <path d="M105.154,21.264v-3.338h-.75v-.505h.75v-.735c.023-.842.658-1.063,1.201-1.063.176,0,.346.046.521.077v.603c-.123-.008-.246-.022-.367-.022-.414,0-.65.106-.629.528v.612h.889v.505h-.889v3.338h-.727Z" style="fill: #000; stroke-width: 0px;"/>
  <path d="M110.176,17.421h.727v3.843h-.711v-.566h-.016c-.291.482-.781.68-1.316.68-.805,0-1.264-.611-1.264-1.385v-2.571h.727v2.272c0,.666.154,1.156.85,1.156.299,0,.705-.152.857-.551.139-.359.146-.81.146-.902v-1.976ZM108.17,16.518v-.781h.697v.781h-.697ZM109.609,16.518v-.781h.695v.781h-.695Z" style="fill: #000; stroke-width: 0px;"/>
  <path d="M113.1,21.264h-.728v-3.843h.728v.742h.014c.107-.528.598-.796,1.125-.796.092,0,.17.008.254.008v.688c-.1-.038-.215-.038-.314-.038-.918.03-1.078.52-1.078,1.332v1.906Z" style="fill: #000; stroke-width: 0px;"/>
  <path d="M117.805,16.394h-1.852v-.658h4.469v.658h-1.852v4.869h-.766v-4.869Z" style="fill: #000; stroke-width: 0px;"/>
  <path d="M120.797,19.48c-.053.672.223,1.369.965,1.369.566,0,.85-.223.934-.781h.766c-.115.873-.789,1.309-1.707,1.309-1.232,0-1.723-.871-1.723-2.004,0-1.126.568-2.067,1.785-2.067,1.146.022,1.691.75,1.691,1.813v.361h-2.711ZM122.742,18.975c.014-.644-.275-1.141-.98-1.141-.604,0-.965.513-.965,1.141h1.945Z" style="fill: #000; stroke-width: 0px;"/>
  <path d="M126.791,18.652c-.039-.482-.267-.818-.789-.818-.695,0-.965.604-.965,1.508s.27,1.508.965,1.508c.482,0,.781-.314.818-.865h.729c-.062.865-.705,1.393-1.555,1.393-1.232,0-1.723-.871-1.723-2.004,0-1.126.566-2.067,1.785-2.067.81,0,1.422.513,1.461,1.347h-.727Z" style="fill: #000; stroke-width: 0px;"/>
  <path d="M128.566,21.264v-5.527h.727v2.197h.016c.275-.429.689-.628,1.248-.628,1.002,0,1.316.666,1.316,1.354v2.603h-.728v-2.273c0-.674-.176-1.11-.855-1.126-.291-.007-.736.214-.873.536-.168.397-.123.674-.123.889v1.975h-.727Z" style="fill: #000; stroke-width: 0px;"/>
  <path d="M133.877,17.986h.016c.246-.481.781-.681,1.164-.681.267,0,1.453.069,1.453,1.301v2.657h-.727v-2.42c0-.635-.267-.979-.881-.979,0,0-.396-.022-.703.283-.107.108-.307.275-.307,1.026v2.09h-.727v-3.843h.711v.565Z" style="fill: #000; stroke-width: 0px;"/>
  <path d="M137.73,15.736h.863v.789h-.863v-.789ZM137.799,21.264v-3.843h.726v3.843h-.726Z" style="fill: #000; stroke-width: 0px;"/>
  <path d="M139.826,21.264v-5.527h.727v3.254l1.439-1.569h.941l-1.623,1.63,1.723,2.213h-.941l-1.523-2.074h-.016v2.074h-.727Z" style="fill: #000; stroke-width: 0px;"/>
  <g>
    <rect x="19.85" width=".97" height="28.348" style="fill: #000; stroke-width: 0px;"/>
    <path d="M5.272,9.424c.46-.649,1.515-2.677,4.597-2.677,2.172,0,3.326.865,3.785,1.298,1.325,1.298,1.406,3.164,1.406,4.218v8.996h-5.57v-7.907c0-.16-.025-2.008-1.893-2.008-1.975,0-2.027,1.814-2.027,2.299v7.616H0V7.098h5.272v2.326Z" style="fill: #000; stroke-width: 0px;"/>
    <path d="M45.539,6.772c-1.044,0-1.891.847-1.891,1.89s.847,1.89,1.891,1.89c.957,0,1.381-.69,1.393-.655.541,1.651-2.329,10.214-6.252,10.214-1.27,0-1.663-1.027-1.663-2.357,0-1.572.454-3.176,1.029-5.353.604-2.146,1.148-4.203,1.452-5.304h-3.779c-.516,1.857-4.214,12.742-7.35,12.742-.393,0-.816-.424-.816-1.18,0-.422.362-1.904.545-2.449l1.238-4.233c.271-.877.665-2.025.665-2.872,0-1.481-1.027-2.329-2.236-2.329-3.417,0-4.838,3.054-5.535,4.293l.576.363c.332-.544,1.844-3.114,2.872-3.114.151,0,.272.181.272.725,0,.363-.211,1.179-.424,1.935l-1.3,4.293c-.212.787-.727,2.299-.727,3.387,0,1.996,1.513,2.994,2.843,2.994,4.849,0,6.955-5.867,7.65-7.559l.061.06c-.091.332-.515,2.115-.515,3.023,0,2.6,1.161,4.475,3.701,4.475,7.362,0,11.38-14.882,6.299-14.882Z" style="fill: #000; stroke-width: 0px;"/>
  </g>
</svg>