<?xml version="1.0" encoding="UTF-8"?>
<svg id="Ebene_1" data-name="Ebene 1" xmlns="http://www.w3.org/2000/svg" width="104.514mm" height="10mm" viewBox="0 0 296.259 28.348">
  <path d="M158.49,15.696h3.478v.652h-2.71v1.727h2.579v.645h-2.579v1.843h2.771v.675h-3.538v-5.541Z" style="fill: #000; stroke-width: 0px;"/>
  <path d="M163.156,17.83l-.008-.445h.722l.008.621c.084-.161.36-.698,1.235-.698.346,0,1.397.131,1.397,1.312v2.617h-.737v-2.448c0-.253-.03-.483-.207-.66-.185-.177-.438-.261-.683-.261-.522,0-1.006.376-1.006,1.151v2.218h-.722v-3.407Z" style="fill: #000; stroke-width: 0px;"/>
  <path d="M167.158,17.384h.807l1.228,3.055,1.197-3.055h.798l-1.688,3.853h-.729l-1.612-3.853Z" style="fill: #000; stroke-width: 0px;"/>
  <path d="M171.979,15.711h.867v.79h-.867v-.79ZM172.055,17.384h.722v3.853h-.722v-3.853Z" style="fill: #000; stroke-width: 0px;"/>
  <path d="M174.256,18.167c0-.262-.016-.53-.038-.783h.729l.016.744c.138-.537.599-.714.921-.76.215-.03.376-.022.499-.016v.706c-.038-.015-.084-.022-.139-.03-.054-.008-.122-.008-.207-.008-.852,0-1.051.507-1.051,1.167v2.049h-.729v-3.069Z" style="fill: #000; stroke-width: 0px;"/>
  <path d="M178.843,17.285c1.543,0,1.888,1.212,1.888,2.019,0,1.128-.637,2.064-1.949,2.064-1.274,0-1.896-.883-1.896-2.011,0-.952.445-2.072,1.957-2.072ZM178.797,20.83c.545,0,1.166-.392,1.166-1.551,0-.959-.444-1.466-1.12-1.466-.461,0-1.205.292-1.205,1.497,0,.79.338,1.52,1.159,1.52Z" style="fill: #000; stroke-width: 0px;"/>
  <path d="M181.672,17.83l-.008-.445h.722l.008.621c.084-.161.36-.698,1.235-.698.346,0,1.397.131,1.397,1.312v2.617h-.737v-2.448c0-.253-.03-.483-.207-.66-.185-.177-.438-.261-.683-.261-.522,0-1.006.376-1.006,1.151v2.218h-.722v-3.407Z" style="fill: #000; stroke-width: 0px;"/>
  <path d="M186.335,17.898l-.016-.514h.729v.561c.368-.606.89-.66,1.22-.66.853,0,1.121.438,1.259.721.131-.215.445-.721,1.297-.721.553,0,1.413.229,1.413,1.366v2.586h-.729v-2.471c0-.338-.062-.484-.131-.584-.122-.177-.368-.338-.736-.338-.469,0-.722.269-.821.407-.169.238-.169.66-.169.829v2.156h-.729v-2.548c0-.476-.276-.845-.844-.845-.491,0-.76.308-.845.423-.161.223-.169.537-.169.782v2.188h-.729v-3.339Z" style="fill: #000; stroke-width: 0px;"/>
  <path d="M194.03,19.441c-.016.799.314,1.39,1.104,1.39.469,0,.845-.246.906-.799h.722c-.023.192-.054.507-.33.807-.169.191-.553.514-1.328.514-1.213,0-1.788-.752-1.788-1.973,0-.76.153-1.389.76-1.812.368-.261.829-.283,1.051-.283,1.728,0,1.689,1.527,1.674,2.156h-2.771ZM196.063,18.934c.008-.368-.062-1.136-.951-1.136-.469,0-1.036.284-1.052,1.136h2.003Z" style="fill: #000; stroke-width: 0px;"/>
  <path d="M197.885,17.83l-.008-.445h.722l.008.621c.084-.161.36-.698,1.235-.698.346,0,1.397.131,1.397,1.312v2.617h-.737v-2.448c0-.253-.03-.483-.207-.66-.185-.177-.438-.261-.683-.261-.522,0-1.006.376-1.006,1.151v2.218h-.722v-3.407Z" style="fill: #000; stroke-width: 0px;"/>
  <path d="M201.999,17.369h.684v-.806l.714-.23v1.036h.859v.529h-.859v2.311c0,.192,0,.515.514.515.146,0,.284-.023.346-.039v.561c-.131.023-.338.046-.599.046-.66,0-.975-.191-.975-.821v-2.571h-.684v-.529Z" style="fill: #000; stroke-width: 0px;"/>
  <g>
    <path d="M62.224,19.645c.015.782.468,1.073,1.211,1.073.628,0,1.395-.184,1.395-.959,0-.536-.444-.758-.904-.85-.913-.2-2.431-.407-2.431-1.648,0-1.204,1.097-1.648,2.131-1.648.943,0,1.871.422,1.871,1.494h-.805c-.031-.621-.552-.836-1.104-.836-.544,0-1.288.2-1.288.859,0,.629.445.667.928.82,1.019.33,2.407.33,2.407,1.725,0,1.258-1.127,1.703-2.246,1.703-1.158,0-2.001-.491-1.971-1.733h.805Z" style="fill: #000; stroke-width: 0px;"/>
    <path d="M68.848,18.648c-.038-.482-.268-.82-.789-.82-.698,0-.966.605-.966,1.511s.268,1.511.966,1.511c.483,0,.782-.314.82-.867h.729c-.062.867-.706,1.396-1.557,1.396-1.234,0-1.725-.875-1.725-2.01,0-1.127.567-2.07,1.787-2.07.812,0,1.426.514,1.464,1.35h-.728Z" style="fill: #000; stroke-width: 0px;"/>
    <path d="M70.473,21.264v-5.535h.728v2.199h.015c.276-.429.69-.629,1.249-.629,1.004,0,1.319.668,1.319,1.357v2.607h-.728v-2.277c0-.675-.177-1.111-.859-1.127-.291-.008-.736.215-.874.537-.168.398-.123.674-.123.889v1.978h-.728Z" style="fill: #000; stroke-width: 0px;"/>
    <path d="M78.654,19.339c0,1.196-.652,2.04-1.916,2.04s-1.917-.844-1.917-2.04.652-2.04,1.917-2.04,1.916.844,1.916,2.04ZM76.737,20.85c.866,0,1.15-.69,1.15-1.511s-.284-1.511-1.15-1.511-1.15.69-1.15,1.511.284,1.511,1.15,1.511Z" style="fill: #000; stroke-width: 0px;"/>
    <path d="M83.414,19.339c0,1.196-.652,2.04-1.916,2.04s-1.917-.844-1.917-2.04.652-2.04,1.917-2.04,1.916.844,1.916,2.04ZM81.498,20.85c.866,0,1.15-.69,1.15-1.511s-.284-1.511-1.15-1.511-1.15.69-1.15,1.511.284,1.511,1.15,1.511Z" style="fill: #000; stroke-width: 0px;"/>
    <path d="M84.465,21.264v-5.535h.728v5.535h-.728Z" style="fill: #000; stroke-width: 0px;"/>
    <path d="M91.518,19.339c0,1.196-.652,2.04-1.916,2.04s-1.917-.844-1.917-2.04.652-2.04,1.917-2.04,1.916.844,1.916,2.04ZM89.601,20.85c.866,0,1.15-.69,1.15-1.511s-.284-1.511-1.15-1.511-1.15.69-1.15,1.511.284,1.511,1.15,1.511Z" style="fill: #000; stroke-width: 0px;"/>
    <path d="M92.891,21.264v-3.344h-.751v-.506h.751v-.735c.023-.844.659-1.065,1.204-1.065.176,0,.345.045.521.076v.605c-.123-.008-.246-.023-.368-.023-.414,0-.652.107-.628.529v.613h.889v.506h-.889v3.344h-.728Z" style="fill: #000; stroke-width: 0px;"/>
    <path d="M97.122,21.264v-5.535h3.473v.658h-2.706v1.726h2.575v.659h-2.575v1.832h2.768v.66h-3.534Z" style="fill: #000; stroke-width: 0px;"/>
    <path d="M102.405,17.982h.016c.245-.483.782-.684,1.165-.684.269,0,1.457.07,1.457,1.305v2.66h-.729v-2.424c0-.636-.268-.98-.882-.98,0,0-.398-.023-.705.283-.107.107-.307.276-.307,1.027v2.094h-.729v-3.85h.713v.568Z" style="fill: #000; stroke-width: 0px;"/>
    <path d="M108.953,17.414h.751c-.023.23-.046.461-.046.69v2.706c0,1.411-.613,1.986-2.024,1.986-.828,0-1.419-.353-1.426-1.242h.767c.031.514.383.713.896.713,1.035,0,1.035-.859,1.059-1.725h-.023c-.229.459-.789.651-1.265.651-1.173,0-1.641-.828-1.641-1.909,0-1.111.621-1.986,1.786-1.986.376,0,.789.154,1.027.507.016.015.115.237.115.184l.023-.575ZM107.848,20.665c.79,0,1.081-.675,1.081-1.419s-.291-1.418-1.081-1.418c-.851,0-1.081.812-1.081,1.418s.23,1.419,1.081,1.419Z" style="fill: #000; stroke-width: 0px;"/>
    <path d="M110.853,15.728h.866v.789h-.866v-.789ZM110.922,21.264v-3.85h.728v3.85h-.728Z" style="fill: #000; stroke-width: 0px;"/>
    <path d="M113.674,17.982h.016c.245-.483.782-.684,1.165-.684.269,0,1.457.07,1.457,1.305v2.66h-.728v-2.424c0-.636-.269-.98-.882-.98,0,0-.398-.023-.705.283-.107.107-.307.276-.307,1.027v2.094h-.728v-3.85h.713v.568Z" style="fill: #000; stroke-width: 0px;"/>
    <path d="M118.191,19.476c-.055.675.222,1.373.965,1.373.568,0,.852-.223.936-.782h.768c-.115.874-.79,1.311-1.71,1.311-1.234,0-1.726-.875-1.726-2.01,0-1.127.568-2.07,1.787-2.07,1.149.023,1.693.752,1.693,1.818v.359h-2.713ZM120.138,18.971c.015-.645-.276-1.143-.982-1.143-.605,0-.965.514-.965,1.143h1.947Z" style="fill: #000; stroke-width: 0px;"/>
    <path d="M122.53,19.476c-.054.675.222,1.373.966,1.373.567,0,.851-.223.935-.782h.767c-.115.874-.79,1.311-1.71,1.311-1.234,0-1.725-.875-1.725-2.01,0-1.127.567-2.07,1.786-2.07,1.149.023,1.694.752,1.694,1.818v.359h-2.714ZM124.477,18.971c.015-.645-.276-1.143-.981-1.143-.605,0-.966.514-.966,1.143h1.947Z" style="fill: #000; stroke-width: 0px;"/>
    <path d="M127.153,21.264h-.728v-3.85h.728v.744h.015c.107-.529.599-.797,1.127-.797.093,0,.17.008.254.008v.689c-.1-.039-.215-.039-.314-.039-.92.031-1.081.521-1.081,1.334v1.91Z" style="fill: #000; stroke-width: 0px;"/>
    <path d="M129.406,15.728h.867v.789h-.867v-.789ZM129.475,21.264v-3.85h.728v3.85h-.728Z" style="fill: #000; stroke-width: 0px;"/>
    <path d="M132.228,17.982h.016c.244-.483.781-.684,1.164-.684.269,0,1.457.07,1.457,1.305v2.66h-.728v-2.424c0-.636-.268-.98-.881-.98,0,0-.398-.023-.705.283-.107.107-.307.276-.307,1.027v2.094h-.728v-3.85h.713v.568Z" style="fill: #000; stroke-width: 0px;"/>
    <path d="M138.929,17.414h.751c-.023.23-.046.461-.046.69v2.706c0,1.411-.613,1.986-2.024,1.986-.828,0-1.419-.353-1.426-1.242h.767c.031.514.383.713.896.713,1.035,0,1.035-.859,1.059-1.725h-.023c-.229.459-.789.651-1.265.651-1.173,0-1.641-.828-1.641-1.909,0-1.111.621-1.986,1.786-1.986.376,0,.789.154,1.027.507.016.015.115.237.115.184l.023-.575ZM137.825,20.665c.79,0,1.081-.675,1.081-1.419s-.291-1.418-1.081-1.418c-.851,0-1.081.812-1.081,1.418s.23,1.419,1.081,1.419Z" style="fill: #000; stroke-width: 0px;"/>
    <g>
      <rect x="19.85" width=".97" height="28.348" style="fill: #000; stroke-width: 0px;"/>
      <path d="M5.272,9.424c.46-.648,1.515-2.678,4.597-2.678,2.172,0,3.326.865,3.785,1.299,1.325,1.298,1.406,3.164,1.406,4.218v8.995h-5.57v-7.906c0-.16-.025-2.008-1.893-2.008-1.975,0-2.027,1.813-2.027,2.299v7.615H0V7.098h5.272v2.326Z" style="fill: #000; stroke-width: 0px;"/>
      <path d="M45.539,6.772c-1.044,0-1.891.847-1.891,1.89s.847,1.891,1.891,1.891c.957,0,1.381-.69,1.393-.655.541,1.651-2.329,10.216-6.252,10.216-1.269,0-1.663-1.027-1.663-2.358,0-1.574.454-3.176,1.029-5.354.604-2.146,1.148-4.203,1.452-5.304h-3.779c-.516,1.857-4.214,12.744-7.35,12.744-.393,0-.816-.424-.816-1.18,0-.424.362-1.906.545-2.449l1.238-4.234c.271-.878.665-2.025.665-2.872,0-1.481-1.027-2.329-2.236-2.329-3.417,0-4.838,3.054-5.536,4.294l.576.363c.333-.544,1.844-3.114,2.873-3.114.151,0,.272.181.272.726,0,.362-.211,1.179-.424,1.934l-1.3,4.295c-.212.787-.726,2.299-.726,3.387,0,1.996,1.513,2.994,2.843,2.994,4.849,0,6.955-5.867,7.65-7.56l.061.06c-.091.333-.515,2.117-.515,3.025,0,2.6,1.161,4.475,3.701,4.475,7.362,0,11.38-14.884,6.299-14.884Z" style="fill: #000; stroke-width: 0px;"/>
    </g>
    <g>
      <path d="M66.194,10.418c.023,1.426-.728,2.308-2.231,2.308s-2.254-.882-2.231-2.308v-3.343h.768v3.526c.022.951.59,1.465,1.464,1.465s1.441-.514,1.464-1.465v-3.526h.767v3.343Z" style="fill: #000; stroke-width: 0px;"/>
      <path d="M68.233,9.329h.016c.244-.483.781-.683,1.164-.683.269,0,1.457.069,1.457,1.304v2.66h-.728v-2.423c0-.636-.268-.981-.881-.981,0,0-.398-.022-.705.284-.107.107-.307.275-.307,1.027v2.093h-.728v-3.849h.713v.567Z" style="fill: #000; stroke-width: 0px;"/>
      <path d="M72.227,7.075h.867v.789h-.867v-.789ZM72.297,12.61v-3.849h.727v3.849h-.727Z" style="fill: #000; stroke-width: 0px;"/>
      <path d="M75.532,12.61l-1.61-3.849h.805l1.227,3.052,1.196-3.052h.797l-1.685,3.849h-.729Z" style="fill: #000; stroke-width: 0px;"/>
      <path d="M79.181,10.824c-.053.675.223,1.372.967,1.372.566,0,.85-.223.936-.782h.766c-.115.874-.789,1.312-1.709,1.312-1.234,0-1.725-.874-1.725-2.009,0-1.127.566-2.07,1.785-2.07,1.15.023,1.695.752,1.695,1.817v.36h-2.715ZM81.128,10.318c.016-.645-.275-1.143-.981-1.143-.605,0-.967.514-.967,1.143h1.947Z" style="fill: #000; stroke-width: 0px;"/>
      <path d="M83.689,12.61h-.728v-3.849h.728v.743h.016c.107-.528.598-.797,1.127-.797.092,0,.168.008.252.008v.689c-.1-.038-.213-.038-.313-.038-.92.031-1.082.521-1.082,1.334v1.909Z" style="fill: #000; stroke-width: 0px;"/>
      <path d="M87.108,8.646c.728,0,1.549.307,1.495,1.181h-.767c.031-.49-.346-.651-.767-.651-.391,0-.706.184-.706.613s.66.46.935.544c.652.215,1.403.292,1.403,1.158,0,.942-.92,1.234-1.71,1.234-.804,0-1.479-.368-1.472-1.258h.767c.016.476.338.729.782.729.429,0,.866-.169.866-.667,0-.858-2.337-.215-2.337-1.718,0-.805.812-1.165,1.509-1.165Z" style="fill: #000; stroke-width: 0px;"/>
      <path d="M89.623,7.075h.866v.789h-.866v-.789ZM89.692,12.61v-3.849h.729v3.849h-.729Z" style="fill: #000; stroke-width: 0px;"/>
      <path d="M91.923,8.762v-.82l.728-.23v1.051l.89-.023v.545l-.89-.008v2.484c0,.275.215.406.476.406.114,0,.268-.016.383-.046v.56c-.17.007-.33.046-.498.046-.177,0-.314-.008-.492-.039-.114-.022-.307-.084-.428-.253-.13-.184-.169-.199-.169-.713v-2.445l-.659.008v-.545l.659.023Z" style="fill: #000; stroke-width: 0px;"/>
      <path d="M95.71,14.082h-.743l.582-1.487-1.603-3.833h.814l1.204,3.036,1.227-3.036h.781l-2.262,5.32Z" style="fill: #000; stroke-width: 0px;"/>
      <path d="M103.484,10.685c0,1.196-.652,2.04-1.916,2.04s-1.918-.844-1.918-2.04.652-2.039,1.918-2.039,1.916.844,1.916,2.039ZM101.568,12.196c.865,0,1.149-.691,1.149-1.511s-.284-1.51-1.149-1.51-1.15.689-1.15,1.51.283,1.511,1.15,1.511Z" style="fill: #000; stroke-width: 0px;"/>
      <path d="M104.857,12.61v-3.343h-.752v-.506h.752v-.736c.022-.843.658-1.065,1.203-1.065.176,0,.346.046.521.077v.605c-.123-.008-.246-.023-.369-.023-.414,0-.65.107-.627.529v.613h.889v.506h-.889v3.343h-.729Z" style="fill: #000; stroke-width: 0px;"/>
      <path d="M108.16,12.61l2.332-5.535h.82l2.238,5.535h-.836l-.598-1.441h-2.568l-.598,1.441h-.791ZM109.808,10.51h2.062l-1.004-2.676-1.059,2.676Z" style="fill: #000; stroke-width: 0px;"/>
      <path d="M114.363,9.452c-.008-.23-.023-.461-.039-.69h.744l.023.613h.015c.223-.552.706-.728,1.312-.728,1.08,0,1.617.997,1.617,2.039,0,.989-.46,2.04-1.848,2.04-.314,0-.82-.153-1.073-.553h-.022v1.909h-.728v-4.63ZM116.179,9.176c-.828,0-1.088.813-1.088,1.51,0,.721.207,1.511,1.019,1.511.889,0,1.157-.79,1.157-1.511s-.215-1.51-1.089-1.51Z" style="fill: #000; stroke-width: 0px;"/>
      <path d="M119.123,9.452c-.007-.23-.022-.461-.038-.69h.744l.022.613h.015c.223-.552.706-.728,1.311-.728,1.081,0,1.618.997,1.618,2.039,0,.989-.461,2.04-1.848,2.04-.314,0-.82-.153-1.074-.553h-.022v1.909h-.728v-4.63ZM120.941,9.176c-.828,0-1.089.813-1.089,1.51,0,.721.207,1.511,1.019,1.511.89,0,1.157-.79,1.157-1.511s-.214-1.51-1.088-1.51Z" style="fill: #000; stroke-width: 0px;"/>
      <path d="M123.929,12.61v-5.535h.728v5.535h-.728Z" style="fill: #000; stroke-width: 0px;"/>
      <path d="M126.07,7.075h.865v.789h-.865v-.789ZM126.138,12.61v-3.849h.728v3.849h-.728Z" style="fill: #000; stroke-width: 0px;"/>
      <path d="M128.685,10.824c-.055.675.221,1.372.965,1.372.567,0,.852-.223.936-.782h.767c-.115.874-.79,1.312-1.71,1.312-1.234,0-1.725-.874-1.725-2.009,0-1.127.568-2.07,1.786-2.07,1.149.023,1.694.752,1.694,1.817v.36h-2.713ZM130.631,10.318c.015-.645-.276-1.143-.981-1.143-.605,0-.965.514-.965,1.143h1.946Z" style="fill: #000; stroke-width: 0px;"/>
      <path d="M135.101,7.075h.729v4.852c0,.23.022.46.038.683h-.743l-.023-.575v-.038h-.016c-.261.536-.767.729-1.326.729-1.142,0-1.595-1.051-1.595-2.04,0-1.042.528-2.039,1.726-2.039.49,0,.973.177,1.195.637h.016v-2.208ZM134.02,12.22c.882,0,1.089-.82,1.089-1.541,0-.698-.262-1.526-1.089-1.526-.874,0-1.089.806-1.089,1.526s.269,1.541,1.089,1.541Z" style="fill: #000; stroke-width: 0px;"/>
      <path d="M139.533,10.993c.015.781.467,1.073,1.211,1.073.629,0,1.395-.185,1.395-.959,0-.536-.443-.759-.904-.851-.912-.199-2.43-.406-2.43-1.648,0-1.204,1.096-1.648,2.131-1.648.943,0,1.871.422,1.871,1.495h-.805c-.031-.621-.553-.836-1.105-.836-.544,0-1.288.199-1.288.858,0,.629.445.667.928.82,1.019.33,2.407.33,2.407,1.726,0,1.257-1.127,1.702-2.246,1.702-1.157,0-2.001-.491-1.971-1.732h.806Z" style="fill: #000; stroke-width: 0px;"/>
      <path d="M146.156,9.996c-.039-.483-.267-.82-.789-.82-.698,0-.967.605-.967,1.51s.269,1.511.967,1.511c.482,0,.781-.315.82-.866h.728c-.062.866-.707,1.396-1.557,1.396-1.234,0-1.726-.874-1.726-2.009,0-1.127.567-2.07,1.786-2.07.812,0,1.426.514,1.465,1.35h-.728Z" style="fill: #000; stroke-width: 0px;"/>
      <path d="M147.728,7.075h.865v.789h-.865v-.789ZM147.796,12.61v-3.849h.728v3.849h-.728Z" style="fill: #000; stroke-width: 0px;"/>
      <path d="M150.456,10.824c-.053.675.223,1.372.967,1.372.566,0,.85-.223.936-.782h.766c-.115.874-.789,1.312-1.709,1.312-1.234,0-1.725-.874-1.725-2.009,0-1.127.566-2.07,1.785-2.07,1.15.023,1.695.752,1.695,1.817v.36h-2.715ZM152.404,10.318c.016-.645-.275-1.143-.98-1.143-.605,0-.967.514-.967,1.143h1.947Z" style="fill: #000; stroke-width: 0px;"/>
      <path d="M155.041,9.329h.016c.245-.483.782-.683,1.165-.683.269,0,1.457.069,1.457,1.304v2.66h-.728v-2.423c0-.636-.269-.981-.882-.981,0,0-.398-.022-.705.284-.107.107-.307.275-.307,1.027v2.093h-.728v-3.849h.713v.567Z" style="fill: #000; stroke-width: 0px;"/>
      <path d="M161.106,9.996c-.038-.483-.268-.82-.79-.82-.697,0-.966.605-.966,1.51s.268,1.511.966,1.511c.483,0,.782-.315.82-.866h.728c-.06.866-.705,1.396-1.557,1.396-1.234,0-1.725-.874-1.725-2.009,0-1.127.567-2.07,1.787-2.07.812,0,1.426.514,1.464,1.35h-.729Z" style="fill: #000; stroke-width: 0px;"/>
      <path d="M163.39,10.824c-.053.675.223,1.372.967,1.372.566,0,.851-.223.936-.782h.766c-.115.874-.789,1.312-1.709,1.312-1.234,0-1.725-.874-1.725-2.009,0-1.127.566-2.07,1.785-2.07,1.15.023,1.695.752,1.695,1.817v.36h-2.715ZM165.337,10.318c.016-.645-.275-1.143-.981-1.143-.605,0-.967.514-.967,1.143h1.947Z" style="fill: #000; stroke-width: 0px;"/>
      <path d="M168.488,8.646c.728,0,1.549.307,1.496,1.181h-.768c.031-.49-.344-.651-.766-.651-.391,0-.705.184-.705.613s.658.46.935.544c.65.215,1.402.292,1.402,1.158,0,.942-.92,1.234-1.709,1.234-.807,0-1.48-.368-1.473-1.258h.766c.016.476.338.729.783.729.43,0,.865-.169.865-.667,0-.858-2.338-.215-2.338-1.718,0-.805.812-1.165,1.51-1.165Z" style="fill: #000; stroke-width: 0px;"/>
      <path d="M208.699,7.075v5.535h-.95l-2.798-4.699h-.015v4.699h-.684v-5.535h1.051l2.699,4.577h.016v-4.577h.681Z" style="fill: #000; stroke-width: 0px;"/>
      <path d="M213.568,10.685c0,1.196-.652,2.04-1.918,2.04s-1.916-.844-1.916-2.04.652-2.039,1.916-2.039,1.918.844,1.918,2.039ZM211.65,12.196c.867,0,1.15-.691,1.15-1.511s-.283-1.51-1.15-1.51-1.15.689-1.15,1.51.285,1.511,1.15,1.511Z" style="fill: #000; stroke-width: 0px;"/>
      <path d="M215.201,12.61h-.729v-3.849h.729v.743h.016c.107-.528.598-.797,1.127-.797.092,0,.168.008.252.008v.689c-.1-.038-.215-.038-.314-.038-.92.031-1.08.521-1.08,1.334v1.909Z" style="fill: #000; stroke-width: 0px;"/>
      <path d="M217.622,8.762v-.82l.728-.23v1.051l.889-.023v.545l-.889-.008v2.484c0,.275.215.406.475.406.115,0,.269-.016.385-.046v.56c-.17.007-.33.046-.5.046-.176,0-.314-.008-.49-.039-.115-.022-.307-.084-.43-.253-.129-.184-.168-.199-.168-.713v-2.445l-.66.008v-.545l.66.023Z" style="fill: #000; stroke-width: 0px;"/>
      <path d="M220.214,12.61v-5.535h.728v2.2h.016c.275-.43.689-.629,1.249-.629,1.005,0,1.319.667,1.319,1.357v2.606h-.728v-2.277c0-.675-.177-1.111-.859-1.127-.291-.008-.736.215-.873.537-.17.398-.123.675-.123.89v1.978h-.728Z" style="fill: #000; stroke-width: 0px;"/>
      <path d="M230.32,8.762l-1.357,3.849h-.827l-.897-3.166h-.016l-.997,3.166h-.851l-1.272-3.849h.789l.928,3.098h.016l.959-3.098h.942l.866,3.036h.016l.958-3.036h.744Z" style="fill: #000; stroke-width: 0px;"/>
      <path d="M231.484,10.824c-.053.675.223,1.372.967,1.372.566,0,.85-.223.935-.782h.766c-.115.874-.789,1.312-1.709,1.312-1.234,0-1.725-.874-1.725-2.009,0-1.127.566-2.07,1.785-2.07,1.15.023,1.694.752,1.694,1.817v.36h-2.714ZM233.431,10.318c.016-.645-.275-1.143-.98-1.143-.605,0-.967.514-.967,1.143h1.947Z" style="fill: #000; stroke-width: 0px;"/>
      <path d="M236.581,8.646c.728,0,1.549.307,1.496,1.181h-.768c.031-.49-.344-.651-.766-.651-.391,0-.705.184-.705.613s.658.46.936.544c.65.215,1.402.292,1.402,1.158,0,.942-.92,1.234-1.709,1.234-.807,0-1.48-.368-1.473-1.258h.766c.016.476.338.729.783.729.43,0,.865-.169.865-.667,0-.858-2.338-.215-2.338-1.718,0-.805.812-1.165,1.51-1.165Z" style="fill: #000; stroke-width: 0px;"/>
      <path d="M239.38,8.762v-.82l.729-.23v1.051l.891-.023v.545l-.891-.008v2.484c0,.275.215.406.477.406.113,0,.268-.016.383-.046v.56c-.17.007-.33.046-.498.046-.178,0-.314-.008-.492-.039-.113-.022-.307-.084-.428-.253-.131-.184-.17-.199-.17-.713v-2.445l-.658.008v-.545l.658.023Z" style="fill: #000; stroke-width: 0px;"/>
      <path d="M242.402,10.824c-.055.675.223,1.372.965,1.372.568,0,.851-.223.935-.782h.768c-.115.874-.789,1.312-1.709,1.312-1.234,0-1.727-.874-1.727-2.009,0-1.127.568-2.07,1.787-2.07,1.15.023,1.693.752,1.693,1.817v.36h-2.713ZM244.349,10.318c.016-.645-.275-1.143-.982-1.143-.605,0-.965.514-.965,1.143h1.947Z" style="fill: #000; stroke-width: 0px;"/>
      <path d="M246.718,12.61h-.728v-3.849h.728v.743h.014c.107-.528.6-.797,1.128-.797.093,0,.17.008.254.008v.689c-.1-.038-.215-.038-.314-.038-.921.031-1.081.521-1.081,1.334v1.909Z" style="fill: #000; stroke-width: 0px;"/>
      <path d="M249.585,9.329h.016c.245-.483.782-.683,1.164-.683.269,0,1.457.069,1.457,1.304v2.66h-.728v-2.423c0-.636-.268-.981-.881-.981,0,0-.398-.022-.705.284-.107.107-.307.275-.307,1.027v2.093h-.728v-3.849h.713v.567Z" style="fill: #000; stroke-width: 0px;"/>
      <path d="M255.886,10.993c.016.781.469,1.073,1.212,1.073.628,0,1.395-.185,1.395-.959,0-.536-.445-.759-.904-.851-.913-.199-2.432-.406-2.432-1.648,0-1.204,1.098-1.648,2.132-1.648.943,0,1.87.422,1.87,1.495h-.805c-.03-.621-.552-.836-1.103-.836-.545,0-1.288.199-1.288.858,0,.629.444.667.928.82,1.019.33,2.407.33,2.407,1.726,0,1.257-1.127,1.702-2.246,1.702-1.158,0-2.002-.491-1.971-1.732h.805Z" style="fill: #000; stroke-width: 0px;"/>
      <path d="M265.992,8.762l-1.357,3.849h-.828l-.896-3.166h-.016l-.996,3.166h-.851l-1.273-3.849h.79l.928,3.098h.016l.957-3.098h.943l.867,3.036h.016l.957-3.036h.744Z" style="fill: #000; stroke-width: 0px;"/>
      <path d="M266.636,7.075h.865v.789h-.865v-.789ZM266.705,12.61v-3.849h.728v3.849h-.728Z" style="fill: #000; stroke-width: 0px;"/>
      <path d="M268.935,8.762v-.82l.728-.23v1.051l.891-.023v.545l-.891-.008v2.484c0,.275.215.406.477.406.113,0,.268-.016.383-.046v.56c-.17.007-.33.046-.498.046-.178,0-.314-.008-.492-.039-.113-.022-.307-.084-.428-.253-.131-.184-.17-.199-.17-.713v-2.445l-.658.008v-.545l.658.023Z" style="fill: #000; stroke-width: 0px;"/>
      <path d="M273.941,12.61h-2.797v-.506l1.939-2.837h-1.91v-.506h2.691v.506l-1.932,2.837h2.008v.506Z" style="fill: #000; stroke-width: 0px;"/>
      <path d="M275.283,10.824c-.053.675.223,1.372.967,1.372.566,0,.851-.223.935-.782h.766c-.115.874-.789,1.312-1.709,1.312-1.234,0-1.725-.874-1.725-2.009,0-1.127.566-2.07,1.785-2.07,1.15.023,1.695.752,1.695,1.817v.36h-2.715ZM277.23,10.318c.016-.645-.275-1.143-.98-1.143-.605,0-.967.514-.967,1.143h1.947Z" style="fill: #000; stroke-width: 0px;"/>
      <path d="M279.79,12.61h-.728v-3.849h.728v.743h.016c.107-.528.598-.797,1.127-.797.092,0,.169.008.253.008v.689c-.1-.038-.214-.038-.313-.038-.92.031-1.082.521-1.082,1.334v1.909Z" style="fill: #000; stroke-width: 0px;"/>
      <path d="M281.998,12.61v-5.535h.728v5.535h-.728Z" style="fill: #000; stroke-width: 0px;"/>
      <path d="M286.324,10.233c0-.667-.039-1.058-.813-1.058-.368,0-.713.215-.721.613h-.767c.039-.844.697-1.142,1.457-1.142.789,0,1.572.238,1.572,1.311v1.84c0,.169.008.49.029.813h-.49c-.068,0-.199.038-.207-.054-.016-.177-.031-.345-.037-.521h-.016c-.238.483-.668.69-1.197.69-.666,0-1.342-.346-1.342-1.097,0-1.081.959-1.395,1.871-1.395h.66ZM285.595,10.739c-.445.023-1.035.185-1.035.744,0,.476.329.713.759.713.858,0,1.02-.743,1.005-1.457h-.728Z" style="fill: #000; stroke-width: 0px;"/>
      <path d="M289.013,9.329h.016c.246-.483.783-.683,1.166-.683.268,0,1.457.069,1.457,1.304v2.66h-.728v-2.423c0-.636-.269-.981-.883-.981,0,0-.398-.022-.705.284-.107.107-.307.275-.307,1.027v2.093h-.728v-3.849h.713v.567Z" style="fill: #000; stroke-width: 0px;"/>
      <path d="M295.494,7.075h.727v4.852c0,.23.023.46.039.683h-.744l-.021-.575v-.038h-.016c-.262.536-.768.729-1.326.729-1.143,0-1.596-1.051-1.596-2.04,0-1.042.529-2.039,1.725-2.039.492,0,.975.177,1.197.637h.016v-2.208ZM294.412,12.22c.881,0,1.088-.82,1.088-1.541,0-.698-.26-1.526-1.088-1.526-.873,0-1.088.806-1.088,1.526s.268,1.541,1.088,1.541Z" style="fill: #000; stroke-width: 0px;"/>
      <path d="M186.931,12.609l2.332-5.535h.82l2.238,5.535h-.836l-.598-1.441h-2.568l-.598,1.441h-.791ZM188.58,10.509h2.062l-1.004-2.676-1.059,2.676Z" style="fill: #000; stroke-width: 0px;"/>
      <path d="M193.915,12.609h-.728v-3.849h.728v.743h.016c.107-.528.598-.797,1.127-.797.092,0,.169.008.253.008v.69c-.1-.038-.214-.038-.313-.038-.92.031-1.082.521-1.082,1.334v1.909Z" style="fill: #000; stroke-width: 0px;"/>
      <path d="M196.262,8.761v-.82l.727-.23v1.051l.891-.023v.545l-.891-.008v2.484c0,.275.215.406.477.406.114,0,.268-.016.383-.046v.56c-.169.007-.33.046-.498.046-.177,0-.314-.008-.491-.039-.114-.022-.307-.084-.429-.253-.131-.184-.169-.199-.169-.713v-2.445l-.659.008v-.545l.659.023Z" style="fill: #000; stroke-width: 0px;"/>
      <path d="M174.842,10.232c0-.667-.038-1.058-.812-1.058-.367,0-.713.215-.721.613h-.767c.038-.844.698-1.143,1.456-1.143.791,0,1.572.238,1.572,1.311v1.84c0,.169.008.49.031.813h-.491c-.069,0-.199.038-.207-.054-.015-.177-.03-.345-.038-.521h-.016c-.237.483-.667.69-1.195.69-.668,0-1.342-.346-1.342-1.097,0-1.081.958-1.395,1.87-1.395h.659ZM174.114,10.738c-.444.023-1.035.184-1.035.744,0,.476.33.713.76.713.858,0,1.02-.743,1.004-1.457h-.729Z" style="fill: #000; stroke-width: 0px;"/>
      <path d="M177.495,9.328h.016c.246-.483.782-.683,1.166-.683.268,0,1.457.069,1.457,1.304v2.66h-.728v-2.423c0-.636-.27-.981-.883-.981,0,0-.398-.022-.705.284-.107.107-.307.275-.307,1.027v2.093h-.728v-3.849h.713v.567Z" style="fill: #000; stroke-width: 0px;"/>
      <path d="M184.05,7.074h.727v4.852c0,.23.023.46.039.683h-.744l-.022-.575v-.038h-.016c-.261.536-.767.728-1.326.728-1.143,0-1.595-1.051-1.595-2.04,0-1.042.529-2.039,1.725-2.039.491,0,.975.177,1.196.637h.016v-2.208ZM182.969,12.219c.881,0,1.088-.82,1.088-1.541,0-.698-.26-1.526-1.088-1.526-.874,0-1.089.806-1.089,1.526s.269,1.541,1.089,1.541Z" style="fill: #000; stroke-width: 0px;"/>
      <path d="M199.951,8.645c.728,0,1.549.307,1.494,1.181h-.766c.031-.49-.346-.651-.768-.651-.391,0-.705.184-.705.613s.66.46.936.544c.652.215,1.402.292,1.402,1.158,0,.942-.92,1.234-1.709,1.234-.805,0-1.481-.368-1.473-1.258h.767c.016.476.338.729.781.729.43,0,.867-.169.867-.667,0-.858-2.338-.215-2.338-1.718,0-.805.813-1.165,1.51-1.165Z" style="fill: #000; stroke-width: 0px;"/>
    </g>
  </g>
  <path d="M144.135,20.828c-.43,0-.759-.238-.759-.713,0-.559.592-.721,1.036-.742h.728c.015.712-.146,1.456-1.005,1.456M145.868,18.589c0-1.073-.781-1.31-1.571-1.31-.759,0-1.418.298-1.457,1.141h.767c.006-.399.353-.613.72-.613.776,0,.814.391.814,1.059h-.66c-.911,0-1.871.313-1.871,1.394,0,.752.674,1.096,1.342,1.096.528,0,.958-.206,1.195-.689h.016c.008.175.023.345.039.522.008.091.138.052.207.052h.49c-.023-.321-.031-.644-.031-.812v-1.84Z" style="fill: #000; stroke-width: 0px;"/>
  <path d="M149.044,17.312c-.383,0-.921.199-1.166.683h-.015v-.567h-.713v3.848h.728v-2.093c0-.752.199-.921.306-1.028.308-.306.705-.284.705-.284.614,0,.882.345.882.982v2.422h.729v-2.66c0-1.235-1.188-1.303-1.457-1.303" style="fill: #000; stroke-width: 0px;"/>
  <path d="M153.267,20.851c-.82,0-1.088-.82-1.088-1.542s.214-1.525,1.088-1.525c.828,0,1.088.828,1.088,1.525,0,.721-.206,1.542-1.088,1.542M155.076,15.706h-.728v2.21h-.015c-.224-.462-.707-.637-1.198-.637-1.195,0-1.725.997-1.725,2.039,0,.989.452,2.039,1.595,2.039.559,0,1.065-.191,1.328-.729h.015v.039l.023.575h.742c-.015-.222-.037-.452-.037-.682v-4.854Z" style="fill: #000; stroke-width: 0px;"/>
</svg>