<?xml version="1.0" encoding="UTF-8"?>
<svg id="Ebene_1" data-name="Ebene 1" xmlns="http://www.w3.org/2000/svg" width="104.464mm" height="10mm" viewBox="0 0 296.119 28.346">
  <path d="M119.588,17.405v2.479c0,.376.084.852.821.852.36,0,.698-.122.905-.43.161-.23.161-.529.161-.722v-2.18h.745v3.132c0,.077.015.507.022.722h-.752l-.016-.66c-.138.269-.398.698-1.228.698-.952,0-1.397-.545-1.397-1.305v-2.587h.737Z" style="fill: #000; stroke-width: 0px;"/>
  <path d="M123.12,17.39h.683v-.807l.714-.229v1.036h.859v.529h-.859v2.311c0,.191,0,.514.515.514.146,0,.283-.022.345-.038v.561c-.13.022-.337.046-.599.046-.66,0-.975-.192-.975-.821v-2.571h-.683v-.529Z" style="fill: #000; stroke-width: 0px;"/>
  <path d="M126.742,19.462c-.016.798.314,1.389,1.105,1.389.468,0,.844-.245.905-.798h.722c-.023.191-.054.507-.33.806-.169.192-.553.515-1.328.515-1.213,0-1.788-.753-1.788-1.973,0-.76.153-1.39.76-1.812.368-.261.829-.284,1.052-.284,1.727,0,1.688,1.527,1.673,2.157h-2.771ZM128.776,18.956c.008-.368-.062-1.136-.952-1.136-.468,0-1.036.284-1.052,1.136h2.004Z" style="fill: #000; stroke-width: 0px;"/>
  <path d="M130.595,18.188c0-.261-.016-.529-.038-.783h.729l.016.745c.138-.537.599-.714.921-.76.215-.031.376-.023.499-.016v.706c-.038-.016-.084-.023-.139-.03-.054-.008-.122-.008-.207-.008-.852,0-1.051.506-1.051,1.166v2.05h-.729v-3.07Z" style="fill: #000; stroke-width: 0px;"/>
  <path d="M62.084,19.643c.015.782.468,1.073,1.211,1.073.628,0,1.395-.185,1.395-.958,0-.537-.444-.76-.905-.852-.912-.199-2.43-.406-2.43-1.648,0-1.203,1.096-1.648,2.131-1.648.943,0,1.871.422,1.871,1.496h-.805c-.031-.621-.552-.836-1.104-.836-.544,0-1.288.199-1.288.858,0,.629.445.667.928.82,1.02.329,2.407.329,2.407,1.726,0,1.257-1.127,1.701-2.247,1.701-1.157,0-2.001-.49-1.97-1.732h.805Z" style="fill: #000; stroke-width: 0px;"/>
  <path d="M68.708,18.647c-.039-.483-.269-.82-.79-.82-.698,0-.966.605-.966,1.51s.269,1.51.966,1.51c.483,0,.782-.314.82-.865h.728c-.061.865-.705,1.394-1.556,1.394-1.234,0-1.725-.873-1.725-2.008,0-1.127.567-2.07,1.787-2.07.812,0,1.426.514,1.464,1.35h-.728Z" style="fill: #000; stroke-width: 0px;"/>
  <path d="M70.333,21.26v-5.535h.729v2.201h.015c.276-.43.69-.629,1.249-.629,1.004,0,1.319.667,1.319,1.357v2.605h-.729v-2.276c0-.675-.176-1.112-.858-1.127-.291-.008-.736.214-.874.536-.169.398-.122.676-.122.89v1.978h-.729Z" style="fill: #000; stroke-width: 0px;"/>
  <path d="M78.513,19.336c0,1.195-.652,2.039-1.917,2.039s-1.916-.844-1.916-2.039.652-2.039,1.916-2.039,1.917.844,1.917,2.039ZM76.596,20.846c.867,0,1.15-.689,1.15-1.51s-.284-1.51-1.15-1.51-1.15.689-1.15,1.51.284,1.51,1.15,1.51Z" style="fill: #000; stroke-width: 0px;"/>
  <path d="M83.121,19.336c0,1.195-.652,2.039-1.917,2.039s-1.916-.844-1.916-2.039.652-2.039,1.916-2.039,1.917.844,1.917,2.039ZM81.204,20.846c.867,0,1.15-.689,1.15-1.51s-.284-1.51-1.15-1.51-1.15.689-1.15,1.51.284,1.51,1.15,1.51Z" style="fill: #000; stroke-width: 0px;"/>
  <path d="M84.17,21.26v-5.535h.728v5.535h-.728Z" style="fill: #000; stroke-width: 0px;"/>
  <path d="M91.33,19.336c0,1.195-.652,2.039-1.917,2.039s-1.916-.844-1.916-2.039.652-2.039,1.916-2.039,1.917.844,1.917,2.039ZM89.413,20.846c.867,0,1.15-.689,1.15-1.51s-.284-1.51-1.15-1.51-1.15.689-1.15,1.51.284,1.51,1.15,1.51Z" style="fill: #000; stroke-width: 0px;"/>
  <path d="M92.702,21.26v-3.342h-.751v-.506h.751v-.736c.023-.844.659-1.066,1.204-1.066.176,0,.345.047.521.077v.606c-.123-.008-.246-.023-.368-.023-.414,0-.652.107-.629.529v.613h.89v.506h-.89v3.342h-.728Z" style="fill: #000; stroke-width: 0px;"/>
  <rect x="19.849" width=".97" height="28.346" style="fill: #000; stroke-width: 0px;"/>
  <path d="M5.272,9.424c.46-.648,1.515-2.678,4.597-2.678,2.172,0,3.326.865,3.785,1.299,1.325,1.298,1.406,3.164,1.406,4.217v8.997h-5.57v-7.907c0-.16-.025-2.008-1.893-2.008-1.975,0-2.027,1.813-2.027,2.299v7.616H0V7.098h5.272v2.326Z" style="fill: #000; stroke-width: 0px;"/>
  <path d="M45.539,6.772c-1.044,0-1.891.847-1.891,1.89s.847,1.891,1.891,1.891c.957,0,1.381-.69,1.393-.655.541,1.651-2.329,10.214-6.252,10.214-1.269,0-1.663-1.027-1.663-2.357,0-1.572.454-3.176,1.029-5.353.604-2.146,1.148-4.203,1.452-5.304h-3.779c-.516,1.857-4.214,12.743-7.35,12.743-.392,0-.816-.424-.816-1.18,0-.422.362-1.904.544-2.449l1.238-4.233c.271-.878.665-2.025.665-2.873,0-1.48-1.027-2.328-2.236-2.328-3.417,0-4.838,3.054-5.536,4.293l.576.363c.332-.543,1.844-3.113,2.873-3.113.151,0,.272.181.272.725,0,.363-.211,1.18-.424,1.936l-1.3,4.293c-.212.788-.727,2.299-.727,3.387,0,1.996,1.513,2.994,2.843,2.994,4.848,0,6.955-5.867,7.65-7.559l.061.061c-.091.332-.515,2.116-.515,3.024,0,2.6,1.161,4.475,3.701,4.475,7.362,0,11.38-14.882,6.299-14.882Z" style="fill: #000; stroke-width: 0px;"/>
  <path d="M66.054,10.418c.023,1.426-.728,2.308-2.231,2.308s-2.254-.882-2.231-2.308v-3.343h.767v3.526c.022.951.59,1.465,1.464,1.465s1.441-.514,1.464-1.465v-3.526h.767v3.343Z" style="fill: #000; stroke-width: 0px;"/>
  <path d="M68.093,9.33h.016c.244-.483.781-.683,1.164-.683.269,0,1.457.069,1.457,1.304v2.66h-.728v-2.423c0-.636-.268-.981-.881-.981,0,0-.398-.022-.705.284-.107.107-.307.275-.307,1.027v2.093h-.728v-3.849h.713v.567Z" style="fill: #000; stroke-width: 0px;"/>
  <path d="M72.087,7.076h.867v.789h-.867v-.789ZM72.157,12.611v-3.849h.727v3.849h-.727Z" style="fill: #000; stroke-width: 0px;"/>
  <path d="M75.392,12.611l-1.61-3.849h.805l1.226,3.052,1.196-3.052h.797l-1.686,3.849h-.729Z" style="fill: #000; stroke-width: 0px;"/>
  <path d="M79.041,10.825c-.053.675.223,1.372.967,1.372.566,0,.85-.223.935-.782h.766c-.115.874-.789,1.311-1.709,1.311-1.234,0-1.725-.874-1.725-2.009,0-1.127.566-2.07,1.785-2.07,1.15.023,1.695.752,1.695,1.817v.36h-2.715ZM80.988,10.319c.016-.645-.275-1.143-.98-1.143-.605,0-.967.514-.967,1.143h1.947Z" style="fill: #000; stroke-width: 0px;"/>
  <path d="M83.548,12.611h-.728v-3.849h.728v.743h.016c.107-.528.598-.797,1.127-.797.092,0,.168.008.252.008v.689c-.1-.038-.213-.038-.313-.038-.92.031-1.082.521-1.082,1.334v1.909Z" style="fill: #000; stroke-width: 0px;"/>
  <path d="M86.968,8.647c.728,0,1.549.307,1.495,1.181h-.767c.031-.49-.346-.651-.767-.651-.391,0-.705.184-.705.613s.66.46.935.544c.652.215,1.403.292,1.403,1.158,0,.942-.92,1.234-1.71,1.234-.804,0-1.48-.368-1.472-1.258h.767c.016.476.338.728.782.728.429,0,.866-.169.866-.667,0-.858-2.337-.215-2.337-1.718,0-.805.812-1.165,1.509-1.165Z" style="fill: #000; stroke-width: 0px;"/>
  <path d="M89.483,7.076h.866v.789h-.866v-.789ZM89.552,12.611v-3.849h.728v3.849h-.728Z" style="fill: #000; stroke-width: 0px;"/>
  <path d="M91.782,8.762v-.82l.728-.23v1.051l.89-.023v.545l-.89-.008v2.484c0,.275.215.406.476.406.114,0,.268-.016.383-.046v.56c-.17.007-.33.046-.499.046-.177,0-.314-.008-.492-.039-.114-.022-.307-.084-.428-.253-.13-.184-.169-.199-.169-.713v-2.445l-.659.008v-.545l.659.023Z" style="fill: #000; stroke-width: 0px;"/>
  <path d="M95.569,14.082h-.743l.582-1.487-1.603-3.833h.814l1.204,3.036,1.226-3.036h.781l-2.262,5.32Z" style="fill: #000; stroke-width: 0px;"/>
  <path d="M103.343,10.686c0,1.196-.652,2.04-1.916,2.04s-1.918-.844-1.918-2.04.652-2.039,1.918-2.039,1.916.844,1.916,2.039ZM101.427,12.197c.865,0,1.149-.69,1.149-1.511s-.284-1.51-1.149-1.51-1.15.689-1.15,1.51.283,1.511,1.15,1.511Z" style="fill: #000; stroke-width: 0px;"/>
  <path d="M104.716,12.611v-3.343h-.752v-.506h.752v-.736c.021-.843.658-1.065,1.203-1.065.176,0,.346.046.521.077v.605c-.123-.008-.246-.023-.369-.023-.414,0-.65.107-.627.529v.613h.889v.506h-.889v3.343h-.728Z" style="fill: #000; stroke-width: 0px;"/>
  <path d="M108.019,12.611l2.332-5.535h.82l2.238,5.535h-.836l-.598-1.441h-2.568l-.598,1.441h-.791ZM109.667,10.51h2.062l-1.004-2.676-1.059,2.676Z" style="fill: #000; stroke-width: 0px;"/>
  <path d="M114.222,9.453c-.008-.23-.023-.461-.039-.69h.744l.023.613h.015c.223-.552.706-.728,1.311-.728,1.08,0,1.617.997,1.617,2.039,0,.989-.46,2.04-1.848,2.04-.314,0-.82-.153-1.073-.553h-.022v1.909h-.728v-4.63ZM116.039,9.176c-.828,0-1.088.812-1.088,1.51,0,.721.207,1.511,1.02,1.511.889,0,1.157-.79,1.157-1.511s-.215-1.51-1.089-1.51Z" style="fill: #000; stroke-width: 0px;"/>
  <path d="M118.983,9.453c-.007-.23-.022-.461-.038-.69h.744l.022.613h.015c.223-.552.706-.728,1.312-.728,1.081,0,1.618.997,1.618,2.039,0,.989-.461,2.04-1.848,2.04-.314,0-.82-.153-1.074-.553h-.022v1.909h-.728v-4.63ZM120.8,9.176c-.828,0-1.089.812-1.089,1.51,0,.721.207,1.511,1.019,1.511.89,0,1.157-.79,1.157-1.511s-.214-1.51-1.088-1.51Z" style="fill: #000; stroke-width: 0px;"/>
  <path d="M123.789,12.611v-5.535h.728v5.535h-.728Z" style="fill: #000; stroke-width: 0px;"/>
  <path d="M125.929,7.076h.865v.789h-.865v-.789ZM125.998,12.611v-3.849h.728v3.849h-.728Z" style="fill: #000; stroke-width: 0px;"/>
  <path d="M128.544,10.825c-.055.675.221,1.372.965,1.372.567,0,.852-.223.936-.782h.767c-.115.874-.79,1.311-1.71,1.311-1.234,0-1.725-.874-1.725-2.009,0-1.127.568-2.07,1.786-2.07,1.149.023,1.694.752,1.694,1.817v.36h-2.713ZM130.491,10.319c.015-.645-.276-1.143-.981-1.143-.605,0-.965.514-.965,1.143h1.946Z" style="fill: #000; stroke-width: 0px;"/>
  <path d="M134.96,7.076h.728v4.852c0,.231.022.46.038.683h-.743l-.023-.575v-.038h-.016c-.261.536-.767.728-1.326.728-1.143,0-1.595-1.051-1.595-2.04,0-1.042.528-2.039,1.726-2.039.49,0,.973.177,1.195.637h.016v-2.208ZM133.879,12.22c.882,0,1.089-.82,1.089-1.541,0-.698-.262-1.526-1.089-1.526-.874,0-1.089.806-1.089,1.526s.268,1.541,1.089,1.541Z" style="fill: #000; stroke-width: 0px;"/>
  <path d="M139.392,10.994c.015.781.467,1.073,1.211,1.073.629,0,1.395-.185,1.395-.959,0-.536-.443-.759-.904-.851-.912-.199-2.43-.406-2.43-1.648,0-1.204,1.096-1.648,2.131-1.648.943,0,1.871.422,1.871,1.495h-.805c-.031-.621-.553-.836-1.104-.836-.544,0-1.288.199-1.288.858,0,.629.445.667.928.82,1.02.33,2.407.33,2.407,1.726,0,1.257-1.127,1.702-2.246,1.702-1.157,0-2.001-.491-1.971-1.732h.806Z" style="fill: #000; stroke-width: 0px;"/>
  <path d="M146.015,9.997c-.039-.483-.268-.82-.789-.82-.698,0-.967.605-.967,1.51s.269,1.511.967,1.511c.482,0,.781-.314.82-.866h.728c-.062.866-.707,1.395-1.557,1.395-1.234,0-1.726-.874-1.726-2.009,0-1.127.567-2.07,1.786-2.07.812,0,1.426.514,1.465,1.35h-.728Z" style="fill: #000; stroke-width: 0px;"/>
  <path d="M147.587,7.076h.865v.789h-.865v-.789ZM147.656,12.611v-3.849h.728v3.849h-.728Z" style="fill: #000; stroke-width: 0px;"/>
  <path d="M150.316,10.825c-.053.675.223,1.372.967,1.372.566,0,.85-.223.935-.782h.766c-.115.874-.789,1.311-1.709,1.311-1.234,0-1.725-.874-1.725-2.009,0-1.127.566-2.07,1.785-2.07,1.15.023,1.695.752,1.695,1.817v.36h-2.715ZM152.263,10.319c.016-.645-.275-1.143-.98-1.143-.605,0-.967.514-.967,1.143h1.947Z" style="fill: #000; stroke-width: 0px;"/>
  <path d="M154.901,9.33h.016c.245-.483.782-.683,1.165-.683.268,0,1.457.069,1.457,1.304v2.66h-.729v-2.423c0-.636-.269-.981-.882-.981,0,0-.398-.022-.705.284-.107.107-.307.275-.307,1.027v2.093h-.728v-3.849h.713v.567Z" style="fill: #000; stroke-width: 0px;"/>
  <path d="M160.965,9.997c-.038-.483-.269-.82-.79-.82-.697,0-.966.605-.966,1.51s.269,1.511.966,1.511c.483,0,.782-.314.82-.866h.729c-.061.866-.705,1.395-1.557,1.395-1.234,0-1.725-.874-1.725-2.009,0-1.127.567-2.07,1.787-2.07.812,0,1.426.514,1.464,1.35h-.728Z" style="fill: #000; stroke-width: 0px;"/>
  <path d="M163.25,10.825c-.053.675.223,1.372.967,1.372.566,0,.85-.223.935-.782h.766c-.115.874-.789,1.311-1.709,1.311-1.234,0-1.725-.874-1.725-2.009,0-1.127.566-2.07,1.785-2.07,1.15.023,1.695.752,1.695,1.817v.36h-2.715ZM165.197,10.319c.016-.645-.275-1.143-.98-1.143-.605,0-.967.514-.967,1.143h1.947Z" style="fill: #000; stroke-width: 0px;"/>
  <path d="M168.347,8.647c.728,0,1.549.307,1.496,1.181h-.768c.031-.49-.344-.651-.766-.651-.391,0-.705.184-.705.613s.658.46.936.544c.65.215,1.402.292,1.402,1.158,0,.942-.92,1.234-1.709,1.234-.807,0-1.48-.368-1.473-1.258h.766c.016.476.338.728.783.728.43,0,.865-.169.865-.667,0-.858-2.338-.215-2.338-1.718,0-.805.812-1.165,1.51-1.165Z" style="fill: #000; stroke-width: 0px;"/>
  <path d="M208.558,7.076v5.535h-.95l-2.798-4.699h-.015v4.699h-.684v-5.535h1.051l2.699,4.577h.016v-4.577h.681Z" style="fill: #000; stroke-width: 0px;"/>
  <path d="M213.427,10.686c0,1.196-.652,2.04-1.918,2.04s-1.916-.844-1.916-2.04.652-2.039,1.916-2.039,1.918.844,1.918,2.039ZM211.509,12.197c.867,0,1.15-.69,1.15-1.511s-.283-1.51-1.15-1.51-1.15.689-1.15,1.51.285,1.511,1.15,1.511Z" style="fill: #000; stroke-width: 0px;"/>
  <path d="M215.06,12.611h-.728v-3.849h.728v.743h.016c.107-.528.598-.797,1.127-.797.092,0,.168.008.252.008v.689c-.1-.038-.215-.038-.314-.038-.92.031-1.08.521-1.08,1.334v1.909Z" style="fill: #000; stroke-width: 0px;"/>
  <path d="M217.482,8.762v-.82l.728-.23v1.051l.889-.023v.545l-.889-.008v2.484c0,.275.215.406.475.406.115,0,.27-.016.385-.046v.56c-.17.007-.33.046-.5.046-.176,0-.314-.008-.49-.039-.115-.022-.307-.084-.43-.253-.129-.184-.168-.199-.168-.713v-2.445l-.66.008v-.545l.66.023Z" style="fill: #000; stroke-width: 0px;"/>
  <path d="M220.074,12.611v-5.535h.728v2.2h.016c.275-.43.689-.629,1.249-.629,1.005,0,1.319.667,1.319,1.357v2.606h-.728v-2.277c0-.675-.177-1.111-.859-1.127-.291-.008-.736.215-.873.537-.17.398-.123.675-.123.89v1.977h-.728Z" style="fill: #000; stroke-width: 0px;"/>
  <path d="M230.179,8.762l-1.357,3.849h-.827l-.897-3.166h-.016l-.997,3.166h-.851l-1.272-3.849h.789l.928,3.098h.016l.959-3.098h.942l.866,3.036h.016l.958-3.036h.744Z" style="fill: #000; stroke-width: 0px;"/>
  <path d="M231.343,10.825c-.053.675.223,1.372.967,1.372.566,0,.85-.223.936-.782h.766c-.115.874-.789,1.311-1.709,1.311-1.234,0-1.725-.874-1.725-2.009,0-1.127.566-2.07,1.785-2.07,1.15.023,1.694.752,1.694,1.817v.36h-2.714ZM233.291,10.319c.016-.645-.275-1.143-.981-1.143-.605,0-.967.514-.967,1.143h1.947Z" style="fill: #000; stroke-width: 0px;"/>
  <path d="M236.441,8.647c.728,0,1.549.307,1.496,1.181h-.768c.031-.49-.344-.651-.766-.651-.391,0-.705.184-.705.613s.658.46.935.544c.65.215,1.402.292,1.402,1.158,0,.942-.92,1.234-1.709,1.234-.807,0-1.48-.368-1.473-1.258h.766c.016.476.338.728.783.728.43,0,.865-.169.865-.667,0-.858-2.338-.215-2.338-1.718,0-.805.812-1.165,1.51-1.165Z" style="fill: #000; stroke-width: 0px;"/>
  <path d="M239.24,8.762v-.82l.728-.23v1.051l.891-.023v.545l-.891-.008v2.484c0,.275.215.406.477.406.113,0,.267-.016.383-.046v.56c-.17.007-.33.046-.498.046-.178,0-.314-.008-.492-.039-.113-.022-.307-.084-.428-.253-.131-.184-.17-.199-.17-.713v-2.445l-.658.008v-.545l.658.023Z" style="fill: #000; stroke-width: 0px;"/>
  <path d="M242.261,10.825c-.055.675.223,1.372.965,1.372.568,0,.852-.223.936-.782h.767c-.115.874-.789,1.311-1.709,1.311-1.234,0-1.727-.874-1.727-2.009,0-1.127.568-2.07,1.787-2.07,1.15.023,1.693.752,1.693,1.817v.36h-2.713ZM244.208,10.319c.016-.645-.275-1.143-.982-1.143-.605,0-.965.514-.965,1.143h1.947Z" style="fill: #000; stroke-width: 0px;"/>
  <path d="M246.578,12.611h-.728v-3.849h.728v.743h.014c.107-.528.6-.797,1.128-.797.093,0,.17.008.254.008v.689c-.1-.038-.215-.038-.314-.038-.921.031-1.081.521-1.081,1.334v1.909Z" style="fill: #000; stroke-width: 0px;"/>
  <path d="M249.445,9.33h.016c.245-.483.782-.683,1.164-.683.269,0,1.457.069,1.457,1.304v2.66h-.729v-2.423c0-.636-.268-.981-.881-.981,0,0-.398-.022-.705.284-.107.107-.307.275-.307,1.027v2.093h-.728v-3.849h.713v.567Z" style="fill: #000; stroke-width: 0px;"/>
  <path d="M255.746,10.994c.016.781.469,1.073,1.212,1.073.628,0,1.395-.185,1.395-.959,0-.536-.445-.759-.904-.851-.913-.199-2.432-.406-2.432-1.648,0-1.204,1.098-1.648,2.132-1.648.943,0,1.87.422,1.87,1.495h-.805c-.03-.621-.552-.836-1.103-.836-.545,0-1.288.199-1.288.858,0,.629.444.667.928.82,1.02.33,2.407.33,2.407,1.726,0,1.257-1.127,1.702-2.246,1.702-1.158,0-2.002-.491-1.971-1.732h.805Z" style="fill: #000; stroke-width: 0px;"/>
  <path d="M265.851,8.762l-1.357,3.849h-.828l-.897-3.166h-.016l-.996,3.166h-.852l-1.272-3.849h.79l.928,3.098h.016l.957-3.098h.943l.867,3.036h.016l.957-3.036h.744Z" style="fill: #000; stroke-width: 0px;"/>
  <path d="M266.496,7.076h.865v.789h-.865v-.789ZM266.564,12.611v-3.849h.728v3.849h-.728Z" style="fill: #000; stroke-width: 0px;"/>
  <path d="M268.794,8.762v-.82l.728-.23v1.051l.891-.023v.545l-.891-.008v2.484c0,.275.215.406.477.406.113,0,.267-.016.383-.046v.56c-.17.007-.33.046-.498.046-.178,0-.314-.008-.492-.039-.113-.022-.307-.084-.428-.253-.131-.184-.17-.199-.17-.713v-2.445l-.658.008v-.545l.658.023Z" style="fill: #000; stroke-width: 0px;"/>
  <path d="M273.8,12.611h-2.797v-.506l1.939-2.837h-1.91v-.506h2.691v.506l-1.932,2.837h2.008v.506Z" style="fill: #000; stroke-width: 0px;"/>
  <path d="M275.142,10.825c-.053.675.223,1.372.967,1.372.566,0,.851-.223.936-.782h.766c-.115.874-.789,1.311-1.709,1.311-1.234,0-1.725-.874-1.725-2.009,0-1.127.566-2.07,1.785-2.07,1.15.023,1.695.752,1.695,1.817v.36h-2.715ZM277.089,10.319c.016-.645-.275-1.143-.98-1.143-.605,0-.967.514-.967,1.143h1.947Z" style="fill: #000; stroke-width: 0px;"/>
  <path d="M279.65,12.611h-.728v-3.849h.728v.743h.016c.107-.528.598-.797,1.127-.797.092,0,.169.008.253.008v.689c-.1-.038-.214-.038-.313-.038-.92.031-1.082.521-1.082,1.334v1.909Z" style="fill: #000; stroke-width: 0px;"/>
  <path d="M281.858,12.611v-5.535h.728v5.535h-.728Z" style="fill: #000; stroke-width: 0px;"/>
  <path d="M286.183,10.234c0-.667-.039-1.058-.813-1.058-.368,0-.713.215-.721.613h-.767c.039-.844.697-1.143,1.457-1.143.789,0,1.572.238,1.572,1.311v1.84c0,.169.008.49.029.812h-.49c-.068,0-.199.038-.207-.054-.016-.177-.031-.345-.037-.521h-.016c-.238.483-.668.69-1.197.69-.666,0-1.342-.346-1.342-1.097,0-1.081.959-1.395,1.871-1.395h.66ZM285.455,10.74c-.445.023-1.035.184-1.035.744,0,.476.329.713.759.713.858,0,1.02-.743,1.005-1.457h-.728Z" style="fill: #000; stroke-width: 0px;"/>
  <path d="M288.873,9.33h.016c.246-.483.783-.683,1.166-.683.268,0,1.457.069,1.457,1.304v2.66h-.728v-2.423c0-.636-.27-.981-.883-.981,0,0-.398-.022-.705.284-.107.107-.307.275-.307,1.027v2.093h-.728v-3.849h.713v.567Z" style="fill: #000; stroke-width: 0px;"/>
  <path d="M295.353,7.076h.727v4.852c0,.231.023.46.039.683h-.744l-.022-.575v-.038h-.016c-.262.536-.767.728-1.326.728-1.143,0-1.596-1.051-1.596-2.04,0-1.042.529-2.039,1.725-2.039.492,0,.975.177,1.197.637h.016v-2.208ZM294.271,12.22c.881,0,1.088-.82,1.088-1.541,0-.698-.26-1.526-1.088-1.526-.873,0-1.088.806-1.088,1.526s.268,1.541,1.088,1.541Z" style="fill: #000; stroke-width: 0px;"/>
  <path d="M186.791,12.61l2.332-5.535h.82l2.238,5.535h-.836l-.598-1.441h-2.568l-.598,1.441h-.791ZM188.439,10.509h2.062l-1.004-2.676-1.059,2.676Z" style="fill: #000; stroke-width: 0px;"/>
  <path d="M193.775,12.61h-.728v-3.849h.728v.743h.016c.107-.528.598-.797,1.127-.797.092,0,.169.008.253.008v.689c-.1-.038-.214-.038-.313-.038-.92.031-1.082.521-1.082,1.334v1.909Z" style="fill: #000; stroke-width: 0px;"/>
  <path d="M196.122,8.761v-.82l.728-.23v1.051l.891-.023v.545l-.891-.008v2.484c0,.275.215.406.476.406.114,0,.268-.016.383-.046v.56c-.169.007-.33.046-.498.046-.177,0-.314-.008-.491-.039-.114-.022-.307-.084-.429-.253-.131-.184-.169-.199-.169-.713v-2.445l-.659.008v-.545l.659.023Z" style="fill: #000; stroke-width: 0px;"/>
  <path d="M174.702,10.233c0-.667-.038-1.058-.812-1.058-.367,0-.713.215-.721.613h-.767c.038-.844.698-1.143,1.456-1.143.791,0,1.572.238,1.572,1.311v1.84c0,.169.008.49.031.812h-.491c-.069,0-.199.038-.207-.054-.015-.177-.03-.345-.038-.521h-.016c-.237.483-.667.69-1.195.69-.668,0-1.342-.346-1.342-1.097,0-1.081.958-1.395,1.87-1.395h.659ZM173.973,10.739c-.444.023-1.035.184-1.035.744,0,.476.33.713.76.713.858,0,1.019-.743,1.004-1.457h-.728Z" style="fill: #000; stroke-width: 0px;"/>
  <path d="M177.354,9.329h.016c.246-.483.782-.683,1.166-.683.268,0,1.457.069,1.457,1.304v2.66h-.728v-2.423c0-.636-.269-.981-.883-.981,0,0-.398-.022-.705.284-.107.107-.307.275-.307,1.027v2.093h-.728v-3.849h.713v.567Z" style="fill: #000; stroke-width: 0px;"/>
  <path d="M183.91,7.075h.727v4.853c0,.23.023.46.039.683h-.744l-.022-.575v-.038h-.016c-.261.536-.767.728-1.326.728-1.143,0-1.595-1.051-1.595-2.04,0-1.042.529-2.039,1.725-2.039.491,0,.975.177,1.196.637h.016v-2.208ZM182.829,12.219c.881,0,1.088-.82,1.088-1.541,0-.698-.26-1.526-1.088-1.526-.874,0-1.089.806-1.089,1.526s.268,1.541,1.089,1.541Z" style="fill: #000; stroke-width: 0px;"/>
  <path d="M199.81,8.646c.729,0,1.549.307,1.494,1.181h-.766c.031-.49-.346-.651-.768-.651-.391,0-.705.184-.705.613s.66.46.935.544c.652.215,1.402.292,1.402,1.158,0,.942-.92,1.234-1.709,1.234-.805,0-1.48-.368-1.473-1.258h.768c.016.476.338.728.781.728.43,0,.867-.169.867-.667,0-.858-2.338-.215-2.338-1.718,0-.805.812-1.165,1.51-1.165Z" style="fill: #000; stroke-width: 0px;"/>
  <path d="M136.161,19.638c.015.781.467,1.073,1.211,1.073.629,0,1.395-.185,1.395-.959,0-.536-.443-.759-.904-.851-.912-.199-2.43-.406-2.43-1.648,0-1.204,1.096-1.648,2.131-1.648.943,0,1.871.422,1.871,1.495h-.805c-.031-.621-.553-.836-1.104-.836-.544,0-1.288.199-1.288.858,0,.629.445.667.928.82,1.02.33,2.407.33,2.407,1.726,0,1.257-1.127,1.702-2.246,1.702-1.157,0-2.001-.491-1.971-1.732h.806Z" style="fill: #000; stroke-width: 0px;"/>
  <path d="M142.784,18.641c-.039-.483-.268-.82-.789-.82-.698,0-.967.605-.967,1.51s.269,1.511.967,1.511c.482,0,.781-.314.82-.866h.728c-.062.866-.707,1.395-1.557,1.395-1.234,0-1.726-.874-1.726-2.009,0-1.127.567-2.07,1.786-2.07.812,0,1.426.514,1.465,1.35h-.728Z" style="fill: #000; stroke-width: 0px;"/>
  <path d="M144.356,15.72h.865v.789h-.865v-.789ZM144.425,21.255v-3.849h.728v3.849h-.728Z" style="fill: #000; stroke-width: 0px;"/>
  <path d="M147.085,19.469c-.053.675.223,1.372.967,1.372.566,0,.85-.223.935-.782h.766c-.115.874-.789,1.311-1.709,1.311-1.234,0-1.725-.874-1.725-2.009,0-1.127.566-2.07,1.785-2.07,1.15.023,1.695.752,1.695,1.817v.36h-2.715ZM149.032,18.963c.016-.645-.275-1.143-.98-1.143-.605,0-.967.514-.967,1.143h1.947Z" style="fill: #000; stroke-width: 0px;"/>
  <path d="M151.67,17.974h.016c.245-.483.782-.683,1.165-.683.268,0,1.457.069,1.457,1.304v2.66h-.729v-2.423c0-.636-.269-.981-.882-.981,0,0-.398-.022-.705.284-.107.107-.307.275-.307,1.027v2.093h-.728v-3.849h.713v.567Z" style="fill: #000; stroke-width: 0px;"/>
  <path d="M157.734,18.641c-.038-.483-.269-.82-.79-.82-.697,0-.966.605-.966,1.51s.269,1.511.966,1.511c.483,0,.782-.314.82-.866h.729c-.061.866-.705,1.395-1.557,1.395-1.234,0-1.725-.874-1.725-2.009,0-1.127.567-2.07,1.787-2.07.812,0,1.426.514,1.464,1.35h-.728Z" style="fill: #000; stroke-width: 0px;"/>
  <path d="M160.018,19.469c-.053.675.223,1.372.967,1.372.566,0,.85-.223.935-.782h.766c-.115.874-.789,1.311-1.709,1.311-1.234,0-1.725-.874-1.725-2.009,0-1.127.566-2.07,1.785-2.07,1.15.023,1.695.752,1.695,1.817v.36h-2.715ZM161.966,18.963c.016-.645-.275-1.143-.98-1.143-.605,0-.967.514-.967,1.143h1.947Z" style="fill: #000; stroke-width: 0px;"/>
  <path d="M114.239,18.035c0-.169-.008-.261-.022-.63h.729l.016.638c.36-.606.998-.699,1.312-.699.829,0,1.619.568,1.619,1.996,0,1.436-.836,2.064-1.757,2.064-.561,0-.976-.238-1.183-.575v1.911h-.714v-4.705ZM116.012,20.875c.184,0,.567-.039.813-.376.276-.376.314-.929.314-1.205,0-.691-.207-1.412-1.059-1.412-1.151,0-1.151,1.22-1.151,1.565,0,.468.068,1.428,1.082,1.428Z" style="fill: #000; stroke-width: 0px;"/>
  <path d="M100.788,17.213c-.031-.192-.131-.96-1.197-.96-1.335,0-1.574,1.366-1.574,2.288,0,1.043.299,2.172,1.566,2.172.338,0,.66-.085.897-.33.2-.215.246-.453.269-.584h.845c-.115,1.09-1.121,1.543-2.072,1.543-1.949,0-2.325-1.719-2.325-2.794,0-1.166.453-2.908,2.425-2.908.783,0,1.888.314,1.988,1.573h-.821Z" style="fill: #000; stroke-width: 0px;"/>
  <path d="M104.245,17.305c1.542,0,1.888,1.213,1.888,2.019,0,1.129-.637,2.064-1.949,2.064-1.274,0-1.896-.882-1.896-2.011,0-.951.444-2.072,1.957-2.072ZM104.199,20.851c.545,0,1.166-.392,1.166-1.55,0-.96-.445-1.467-1.12-1.467-.461,0-1.205.292-1.205,1.497,0,.791.338,1.52,1.159,1.52Z" style="fill: #000; stroke-width: 0px;"/>
  <path d="M107.109,17.919l-.016-.515h.729v.561c.368-.606.891-.66,1.221-.66.852,0,1.12.438,1.259.722.13-.215.444-.722,1.297-.722.553,0,1.412.23,1.412,1.366v2.587h-.729v-2.472c0-.338-.062-.483-.13-.583-.123-.177-.369-.338-.737-.338-.468,0-.722.269-.821.406-.169.238-.169.66-.169.829v2.157h-.729v-2.549c0-.476-.276-.844-.845-.844-.491,0-.76.307-.844.422-.161.223-.169.537-.169.783v2.188h-.729v-3.339Z" style="fill: #000; stroke-width: 0px;"/>
</svg>